<svg version="1" xmlns="http://www.w3.org/2000/svg" width="1152" height="1152" viewBox="0 0 864.000000 864.000000"><path d="M329.2 163.2c-3.8 1.9-4.5 8.1-2.7 23.1.9 7.4 1.3 13.3 2.1 27.8.7 13-.1 15.9-4.1 15.9-2.6 0-9.8-3-10.3-4.3-.2-.4-.8-.7-1.3-.7-.6 0-3.5-1.6-6.5-3.5s-5.7-3.5-6-3.5c-.3 0-1.7-1.1-3.2-2.5-1.5-1.4-3.1-2.5-3.5-2.5-2.2 0-16.9-13-22.3-19.7-8.4-10.3-24.5-13.1-30.3-5.2-3 4-3.3 8.6-.9 15.1s4.6 14.2 5.4 18.5c3.2 19.3 1.9 36.3-2.8 36.3-2.2 0-12.1-6.8-17.8-12.2-2-1.8-6-5.3-8.9-7.8-3-2.5-5.9-5-6.5-5.6-1.8-1.7-14.7-9.9-19.3-12.3-4.7-2.3-15.6-6.1-19.8-6.9-3.4-.6-22.7-.4-23.3.3-.2.2.2 1.1.9 1.8.8.8 4.1 4.5 7.4 8.3 3.3 3.7 6.7 7.5 7.5 8.4 6.1 6.6 14.1 20.9 16.9 30.5 5.3 17.7.8 29.1-10.5 27.1-3.7-.7-12.4-4.7-12.4-5.8 0-.4-.6-.8-1.4-.8-.8 0-1.6-.3-1.8-.8-.5-1.3-13.9-10.7-23.8-16.9-15.7-9.7-24.5-13.1-36.5-13.8-2.7-.2-6.3-.6-8-.9-9.2-1.7-10.3-1.7-11.8-.1-2.4 2.4-.6 6.1 7.7 15.4 4 4.5 7.9 9.4 8.7 10.9.8 1.5 1.6 2.9 1.9 3.2 2.6 2.6 10.3 20.7 11.5 27 1.1 6.4 1.1 7.5-.1 10.1-1.5 3.1-6.1 4.4-10.2 2.8-1.5-.6-2.9-1-3.2-1-1.3.2-8.7-2.7-20.2-8-14.1-6.6-29-12.7-32.2-13.3-1.2-.3-4.9-1.2-8.4-2.1-14.2-3.7-26-1.2-26.2 5.6 0 2.2 5.9 13.9 7.1 13.9.5 0 .9.7.9 1.5 0 .7.6 1.8 1.3 2.2 2.3 1.5 11.8 16.2 15.2 23.7 8.1 17.5 6.5 29.9-5.6 42.7-11 11.6-15.5 18.5-19 28.9-3.1 9.4-3.4 26.8-.5 35.5.1.5.7 2.3 1.1 4 1.4 5.2 8.1 18.3 10.5 20.5.3.3 1.8 2.2 3.4 4.4 7.8 10.4 23.1 22.3 30 23.3 6.4.9 10.7 6.2 12.2 15.3.4 2.5.9 5.2 1 6 .5 2.4 1.4 19.1 2 36.5.9 25.5 1.3 29.6 4.1 39.8 1 3.8 2.8 7.2 4.9 9.4 2.9 3.1 3.8 3.4 7.3 3 7.5-.8 14.6-5.6 29.8-20.1 19.1-18.1 21.2-17.2 21.9 9.2.7 22.8 1.3 27.8 4.7 35.4 1.4 3.4 3 5.2 5.5 6.4 3.1 1.5 3.7 1.5 7.6 0 10.1-3.8 18.5-12.3 41-41.1 4.9-6.2 9.8-6.7 11.5-1.1 1.2 3.8 2 11.2 2.6 23.1.5 12.6 1.3 18.9 3.6 27.5 3.1 11.5 7.5 17.2 14.1 17.8 7.7.9 22.4-11.1 37.3-30.3 13.2-17 16.9-18.2 22.2-7.2 1.6 3.4 4.4 10.9 6.2 16.7 1.8 5.8 5 15.9 7.2 22.5 2.1 6.6 4 12.4 4.2 13 .2.5 1.5 2.9 3 5.3 2.3 3.5 3.2 4.2 6 4.2 8.6 0 26.2-13.1 37.2-27.6 7.3-9.7 10.7-12.4 15.4-12.4 2.9 0 4.4.7 6.8 3.3 2.9 3 8.3 13.2 8.3 15.6 0 1.8 4.1 10.2 8.2 16.8 4.4 7 10.5 12.9 14.3 13.9 6.2 1.5 12.7-5.4 18.2-19.1 3.4-8.6 11-23.5 14-27.4.7-.9 2.6-3.5 4.3-5.9 3.5-4.9 5.4-6 7.5-4.2 2.8 2.3 9.4 17.7 10.9 25.5.1.5.5 1.9.9 3 .6 2 1.5 6.2 2.1 10 .8 4.9 3.1 10.6 5 12.4 4.2 3.8 10.8-.8 24.1-17 4.8-5.8 12.4-16.7 14.3-20.5 2.8-5.6 4.3-6.7 7.6-5.4 4.9 1.8 11 10.2 19.9 27 6.2 11.9 9.3 14.7 15.2 13.6 1.9-.4 3.5-1.1 3.5-1.6 0-.6.5-1 1-1 1.4 0 6.9-6.2 7-7.8 0-.6.4-1.2.8-1.2 1.7 0 9.2-19.6 10.5-27.5 1.6-9.1 5.5-16.9 9-18.1 3.8-1.3 4.2-1.2 8.2 1.5 4.6 3.1 9.8 9.7 14 17.8 9 17.5 16.1 20 26.1 9.4 4.2-4.5 7.4-10.1 14.8-26.4 5-11 7.1-13.7 10.7-13.7 3.8 0 7.8 3.9 14.6 14 7.9 11.7 12.9 15.4 17.1 12.4 2-1.4 5.8-9.2 6.6-13.7.2-1.5.7-3.1 1-3.5.3-.5 1.7-5.3 3.1-10.7 2.7-10.3 3.3-15.3 3.9-29.6.4-9 1.4-12.2 4.1-13.3 1.8-.7 7 3.9 6 5.3-.3.5 0 2.2.6 3.8.6 1.5 1.2 3.5 1.4 4.3 1.9 8.2 18.9 40 21.4 40 1.1 0 6.4-4 7.4-5.7.4-.6 1.3-1.8 2-2.5 1.4-1.4 5.6-7.2 7.2-9.9 4.8-8 13.1-24.1 14.7-28.3 1-2.8 2.2-5.8 2.7-6.7.5-.8 1.9-5.6 3.1-10.5 2.8-11.9 5.4-15 12.2-14.5 3.2.2 9.7 7.2 13.3 14.3 1.9 3.9 3.5 7.8 3.5 8.7 0 1 .4 2.1.9 2.6.5.6 1.2 2.3 1.4 4 1.8 10.4 5.6 19.9 8.5 21 1.6.6 6.1-1.6 8.4-4.1 4.5-5.2 12.5-23.8 14.3-33.3.6-2.9 1.2-6.4 2-10.1 1.8-8.9 2.4-34.2 1.1-46-1-8.6-1.8-12.4-7.1-32-2.5-9.1-4.4-18.2-4.3-20.3.2-4.7 2-7.6 15.2-23.8 2.7-3.2 8.2-13.6 11-20.4 1.6-3.9 5.3-12.7 8.3-19.7 3-7 5.6-13.5 5.8-14.5 4.2-18.7 4.6-22 5-37.3.3-15.8-.8-21.4-4.8-24.4-2.7-2-2.8-2-6.3-.1-1.9 1-10.8 9.5-19.7 18.7-15.4 16.1-19.7 19.8-23.1 19.8-2.1 0-2.5-2.1-3.2-16-.5-11.6-.9-16.8-1.4-18-.1-.3-.2-.9-.1-1.3.3-1.9-4.2-23.5-6.9-32.8-4.6-16-11.1-28.2-14.1-26.3-.9.5-9.3 14.6-12.2 20.4-1 1.9-2.6 5-3.7 6.7-1.1 1.8-3.4 6.1-5.2 9.5-1.8 3.5-3.6 6.7-4 7.3-.5.5-3.1 4.6-5.9 9-6 9.3-12.3 15.5-15.2 14.9-4.7-.9-6.3-7.3-6.7-27.9-.7-29.1-11.6-65.6-23.4-78-4.9-5.2-9-6.6-11.2-3.9-2.6 3.3-6.4 11.6-10.5 22.6-8.3 22.2-20.4 39.8-27.5 39.8-4.6 0-5.3-1.9-7-18.9-.3-3.5-1.2-8.7-2-11.5-.8-2.8-1.6-5.8-1.8-6.6-2.1-8.2-12.1-29.6-18.2-39-3.2-4.9-3.5-5.3-6.5-9-1.1-1.4-3.2-3.9-4.6-5.7-3-3.7-9.5-8.3-12.6-8.9-6.8-1.3-7.8 2.4-9.2 32.1-.2 6-.6 11.9-.9 13-.2 1.1-.7 4-1.1 6.5-.4 2.5-1 4.9-1.3 5.5-.4.5-.7 1.6-.8 2.3-.2.8-1.4 3.1-2.8 5.3-4.8 7.2-10.7 4.8-17.7-7.4-2.3-4-5.7-9.6-7.5-12.4-1.9-2.9-3.4-5.7-3.4-6.3 0-.5-.4-1-1-1-.5 0-1-.5-1-1 0-.6-.4-1.6-1-2.3-.5-.7-3.8-5-7.2-9.7-8.6-11.6-9.9-13.1-20.8-24-9.1-9.1-14.2-12.6-19.6-13.6-4.1-.8-5 3.1-5.9 26.1-.3 7.7-.7 15.1-1 16.5-1.9 10-2.8 12.9-4.5 15.8-1.1 1.8-2.7 3.5-3.5 3.8-4.5 1.8-10.4-3.1-16.5-13.6-5-8.7-10.2-17.3-11-18-.3-.3-1.8-2.3-3.5-4.5-14.9-20.1-38.6-37.5-51.1-37.5-3.8 0-8.3 3.5-8.5 6.7-.4 5 .3 11.5 1.2 12.8.4.5.9 2.4 1.2 4.2.3 1.7.7 3.6 1 4 1.9 3 2.7 24.9 1.3 33.6-.8 5.5-3.6 9-6.3 8-2.5-.9-13.6-12.5-19.7-20.8-2.9-3.8-8.4-11.3-12.3-16.5-16.4-22-33.7-34.7-42.1-30.8zm113.7 48.6c9.5 10.2 20.7 30.3 21.8 39.1.5 4.8.5 5.1-2.3 6.1-6.2 2.4-27.9 1.3-33.6-1.6-2.8-1.5-3.1-2.3-3.1-10.4 0-4.4 1.2-16.9 1.9-19.2.3-.9.6-2.5.8-3.5.9-4.5 2.9-11 4.3-13.6 1.9-3.7 4.5-3 10.2 3.1zm-85.3 1.7c3.6 2.3 5.4 4.3 10.9 12 5.1 7.2 12.3 20.5 12 22.2-.2.7-.3 1.7-.4 2.3-.2 1.7-8.6 6.8-13.6 8.2-9.9 2.9-21.1.1-23.2-5.7-.9-2.6-1-6.7-.2-8 1.1-1.6 2.8-11 3.4-18.3.8-9 1.4-11.4 3.2-13.4 1.9-2.1 4-1.9 7.9.7zm173.4 6.7c3.7 3.8 10.5 17.4 16.1 32.5 6.6 17.6 6.3 22.1-1.7 24.3-3.2.9-5.1 1-7.1.2-1.6-.6-7.3-2.3-12.8-3.7-14.8-3.8-18.2-5.3-19.5-8.5-1.5-3.7-.6-9 3.6-21.3C516 225.3 521.1 217 526 217c1 0 3.2 1.5 5 3.2zm-241 15.7c20.2 19.9 19.9 27.4-1.5 37.5-11.9 5.7-17.2 6.1-19.1 1.7-1.1-2.6-1.4-35.1-.3-40 2.7-13 7.1-12.8 20.9.8zm333.4 7.8c5.2 5.1 7.7 15.5 7.6 31 0 25.9-4.4 30.3-23.5 23.5-11.4-4.1-14.4-5.8-15.2-9-1-3.9-.5-6.1 2.8-10.8 1.6-2.4 2.9-4.7 2.9-5.2 0-.6.4-1.2.8-1.4 1.3-.5 6.7-10.6 10.1-18.9 5-12.2 9-14.7 14.5-9.2zM214 259.6c3.6 2.9 7.9 6.8 9.5 8.6 5.9 6.5 11.7 13.8 11 13.8-.3 0 .1 1 .9 2.2 3 4.3 1.8 7.1-5.7 13.5-3.1 2.6-16.8 10.6-21.8 12.7-5.3 2.2-5.9 1.3-7.4-10.2-.3-2.3-.7-5.9-1-8-.5-3.8-1.4-11.2-2-16.7-.2-1.7-.6-5.6-1-8.9-1.5-13.5-1.4-16.1.9-16.7 2.4-.6 7 2.1 16.6 9.7zM707 275c2.6 2.6 5.8 13.4 6.4 22.1.2 2 .5 4 .8 4.5.3.5.5 6.3.3 12.9-.6 22.7-2.2 25.9-12.6 24.9-12.6-1.2-29.3-10.2-32-17.1-1.1-3 1.2-8 9-19.8 2.5-3.9 4.8-7.5 5-8 .2-.6.7-1.2 1-1.5.4-.3 2-2.3 3.6-4.6 5.9-8.1 12.8-15.4 14.6-15.4 1.1 0 2.8.9 3.9 2zm-279 4.4c12.3.8 24.3 1.7 28 2.2 1.9.2 6.2.6 9.5.9 3.3.3 7.1.8 8.5 1.1 1.4.4 4.3.8 6.5 1 3.4.4 10.2 1.5 24 3.9 1.7.3 3.7.8 4.5 1 .8.2 3.1.7 5 1 1.9.3 5.3 1.1 7.5 1.7 2.2.5 4.9 1.2 6 1.4 10 1.7 55.3 14.9 63 18.3 1.1.5 4.7 1.9 8 3.1 3.3 1.2 7.9 3.1 10.2 4.1 2.4 1.1 4.5 1.9 4.8 1.9 1 0 28.8 13.8 37.5 18.6 16.9 9.2 30.6 17.8 67.5 41.9 6.1 4 11.5 7.4 12 7.6 2.3.9 46.5 30.6 52.5 35.2 13.4 10.4 19 17.9 16.8 22.2-1.4 2.5-4.1 4.5-8.8 6.5-2 .8-4.8 2.4-6.4 3.5-4 2.9-14.8 11.6-16.7 13.4-7.1 7-27.8 24.5-37.9 31.9-4.1 3.1-9.1 6.7-11 8.1-1.9 1.4-4.2 3-5.1 3.6-1 .5-5.3 3.2-9.6 5.9s-13.4 7.8-20.3 11.4c-16.3 8.4-31.5 16.6-33.5 18.2-2.2 1.6-16.2 8.8-18.5 9.5-1.4.4-6.3 2.5-11 4.7-16 7.6-29.5 13.5-33 14.3-.3.1-1.2.5-2 .8-3.1 1.4-25.9 8.5-29.1 9.2-1.9.4-5.2 1.3-7.4 2s-5.3 1.5-7 1.8c-1.6.3-5.7 1.2-9 2-3.3.9-7.7 1.8-9.7 2.1-2.1.3-5.9 1.1-8.5 1.7-2.7.6-5.9 1.2-7.3 1.4-1.4.2-5.5.8-9.2 1.4-16.9 2.8-40.3 4.4-63.3 4.4-14.4 0-36.7-.9-43-1.7-1.6-.2-6.8-.7-11.4-1.1-4.7-.4-9.4-.9-10.5-1.1-1.2-.2-4.1-.7-6.6-1-2.5-.3-9.4-1.4-15.5-2.4-9.3-1.6-14.8-2.7-31.5-6.5-.8-.1-3.5-.8-6-1.5s-5.2-1.4-6-1.5c-5.5-1.2-34.6-11.7-39.8-14.4-4.2-2.2-32.8-14.1-34-14.1-.6 0-1.2-.5-1.2-1 0-.6-.6-1-1.4-1-3.6 0-46.8-21.6-64.1-32-3.4-2-6.8-3.9-7.5-4.3-.8-.4-2.7-1.5-4.2-2.5-11.3-7.4-31.1-17.4-46.8-23.6-5.2-2.1-10.4-4.2-11.5-4.7-2.9-1.2-17.7-6-19.8-6.4-1-.3-2.6-.6-3.5-.9-.9-.3-3.4-.7-5.5-1-6.7-1-17.8-9-32.7-23.7-11.2-10.9-12.4-13.4-12.2-26.1.1-14.7 9.3-28.4 24.2-36.4 1.9-1 3.7-1.8 4-1.9.3 0 1-.3 1.5-.7 1.4-.8 17.2-4.6 22.5-5.3 2.5-.4 9.5-1.7 15.5-3.1 6.1-1.3 12-2.7 13.2-2.9 1.2-.3 3.5-1 5-1.6 1.6-.6 3.5-1.2 4.3-1.4 8.5-2 35.6-12.6 47.5-18.7 2.2-1.1 4.7-2.4 5.6-2.8 5.3-2.6 12.8-6.6 14.9-8 1.4-.9 5.3-3.5 8.8-5.8 3.5-2.3 6.8-4.2 7.3-4.2s.9-.4.9-.8c0-1.2 33.5-19.3 34.3-18.5.2.2 1-.3 1.7-1.2.7-.8 1.7-1.5 2.2-1.5.6 0 4.7-1.7 9.2-3.9 14.8-7 33.3-15.1 34.5-15.1.6 0 1.1-.4 1.1-.9s1.8-1.2 4-1.6c2.2-.4 4-1 4-1.5 0-.4 1-1 2.3-1.3 1.2-.2 6-1.6 10.7-3 4.7-1.4 10.2-2.8 12.1-3.1 2-.3 4.2-.8 5-1 1.4-.5 7.4-1.6 11.9-2.2 1.4-.1 3.4-.5 4.5-.7 2-.5 9.3-1.3 19-2.3 2.8-.3 10.6-.7 17.5-1 6.9-.4 12.6-.7 12.7-.8.4-.4 37.8.3 45.3.8zm-295.2 8.3c5 2.8 24.5 22.1 30.3 29.8 5.5 7.3 5.5 9.7.2 15.7-5 5.5-13.1 10.6-18.2 11.4-7.9 1.3-11.5-2.2-14.1-13.6-.6-2.5-1.3-5.4-1.5-6.5-.3-1.1-1.8-7.2-3.4-13.5-6.1-23.5-4.3-29.8 6.7-23.3zm653.3 40c1.4 3.7 1.1 8.5-1.1 19.6-3.1 15.2-7.4 27-11.5 31.3-1.7 1.8-5.3 3.4-7.6 3.4-3.1 0-9.7-3.4-13.9-7.1-1.9-1.7-4.4-3.9-5.6-4.8-1.1-.9-2.6-2.6-3.3-3.8-1.5-2.9.3-7.5 5-12.4 1.9-1.9 5.7-6 8.4-9 12.1-13.1 23.5-21.6 27.2-20.2.8.3 1.9 1.7 2.4 3zm-721 7.6c8.4 4.2 21.8 12.9 25.4 16.4 4.2 4.1 4.4 6.3.9 9.8-11.6 11.6-29.6 1.2-38.3-22-1.8-4.7-1.9-5.6-.6-6.9 1.7-1.7 5.6-.9 12.6 2.7zm772.7 48.2c.4 2.8-6.7 17-11.6 23.1-4.6 5.9-10.6 9.3-15.1 8.6-3.5-.5-9.5-5.6-10.5-8.9-1.6-5 5.5-11.5 22.2-20.6 9.5-5.2 14.5-5.9 15-2.2zM795.6 486c5.3 2 10.5 11 12 20.8.3 2.1.8 4 1.1 4.5 1 1.6 1.1 28.7.2 32.4-2.8 10.1-6 8.5-23.5-11.2-14.3-16.2-18.8-23.2-18-27.8.3-1.2.5-2.6.5-3 .3-2.9 14.7-14 20.2-15.5 4.5-1.3 4.4-1.3 7.5-.2zM99.8 514.6c8.9 3 14.1 11.7 12.7 21.3-.7 5.5-4.4 16.3-5.9 17.3-.6.4-.8.8-.4.8 1.3 0-8.4 15.4-11.9 18.8-2.7 2.7-3.6 3.1-5.2 2.3-2.2-1.2-4.8-6.3-5.6-11.1-.3-1.8-.7-3.6-.9-3.9-.2-.3-.7-2.2-1-4.1-.5-3.3-.9-5-2.2-11-1.3-6.3-1.6-21.2-.4-25.4 2-7.2 9.1-8.9 20.8-5zm645.7 12.8c1.3 1.7 1.3 16.2 0 22.6-.2 1.4-.7 4.7-1 7.5-.4 2.7-.8 5.7-1 6.5-.3.8-.7 3.3-1 5.5-.4 2.2-1.1 5.8-1.7 8-.5 2.2-1.2 4.8-1.3 5.7-.7 3.4-4.3 10.6-6.4 12.7-2.9 2.9-5.5 2.6-9.1-1.2-3-3.1-13.3-23.1-18.1-35l-2.3-5.8 6-5.7c13.4-12.6 18.7-17.1 24.3-20.4 4.9-2.9 9.7-3.1 11.6-.4zm-591.7 13.5c4.8 2.5 14.1 11.7 15.8 15.7 1.2 3 1.1 6.4-.3 10.9-.4 1.1-.8 2.4-.9 3-.1.9-1.8 6.5-7.6 25.8-2.1 7.2-5.2 11.5-7.9 11-5.3-1.2-13.8-29.2-14.4-47.7-.6-17.2 5-24 15.3-18.7zm521.8 34.6c3.9 2.5 5.7 8 5.1 15.9-1 12.1-4.6 19.6-9.5 19.6-4.4 0-14.7-9.1-19.8-17.6-2.8-4.8-2.4-7.3 2.2-11.5 9-8.2 16-10.2 22-6.4zm-445.2 8.8c5.1 2.8 5.9 3.3 10.8 8.1 4.8 4.7 5.7 6.7 5.3 12.7-.4 7.5-11.1 26.8-16.7 30.3-3 1.8-5.1-.5-7.8-8.7-1.4-4.1-2.6-7.9-2.7-8.4-5.3-26.7-5.7-32.8-2.3-35.5 2.8-2.3 7.5-1.8 13.4 1.5zm381.4 17.6c1.3.1 3.5 1.3 4.9 2.7 2.5 2.5 2.6 2.8 2 12.7-1 16.1-2.8 22.6-6.8 24.7-5 2.7-13.4-6-21.7-22.7-2.3-4.6-2.7-6.3-1.9-8 1.1-2.4 7.5-7.3 10.4-7.8 1-.2 1.8-.4 1.8-.5 0-.1.8-.3 1.8-.5 1.1-.2 2.1-.6 2.4-.9.3-.3 1.5-.4 2.7-.1 1.2.2 3.1.4 4.4.4zm-293.3 9.7c3.3.9 6.5 1.7 7 1.8 4.4 1.1 9.7 4.5 11.2 7.3 2.5 4.7.7 10.5-6.8 21.4-9.7 14.2-15.7 19.3-20.4 17.5-6.4-2.4-12.7-34-8.8-43.9 2.3-5.7 7.5-6.9 17.8-4.1zm218.8 7.7c1.1-1 8.4 3.9 10.1 6.7 1.8 3.1 2.4 12.5 1.2 19.8-1.1 7.5-4.8 13.2-8.6 13.2-.4 0-2.4-1.4-4.4-3.2-6.2-5.5-15-26.1-13.8-32.4.6-3.3 8.2-5.9 12.8-4.3 1.2.4 2.4.5 2.7.2zm-138.8 5.2c14.1 3.8 16.8 19.9 5.5 32.8-4.1 4.8-6.7 4.7-11.2-.1-1.9-2.1-3.7-4.2-3.9-4.7-.2-.6-1.7-3.5-3.3-6.5-3.2-5.9-3.5-6.7-4.3-11.7-1.5-9.3 5.1-13.1 17.2-9.8zm76.9 4.9c4.9.9 6.1 2.9 5.9 9.8-.3 8.6-2.8 16.4-5.8 18.4-4.3 2.8-8.5.2-15.1-9.6-5.9-8.7-7.1-15.2-3.3-17.6 3-1.8 11.5-2.3 18.3-1z"/><path d="M401.7 289.6c-.1.1-4.4.4-9.5.8-11 .8-28.6 3.7-39.2 6.6-2.5.7-5.2 1.3-6 1.5-.8.2-5.1 1.3-9.5 2.5s-8.7 2.4-9.5 2.6c-9.6 2.5-20.5 5.5-24.5 6.9-2.7.9-6 1.8-7.2 2.1-4.2.9-28.7 11.6-44.4 19.4-20.6 10.4-45.4 24.6-62.1 35.7-15.9 10.7-23.6 15.2-38.5 22.7-15.6 7.8-36.8 15.9-50.3 19.1-.8.2-1.6.4-1.7.5-.2.2-.6.3-1 .5-7.4 2-17.7 8-22.8 13-12.8 12.9-9.2 28.8 8.5 37.6 3.5 1.7 6.8 3.2 7.4 3.3.6.2 2.9.8 5.1 1.4 4.4 1.3 10.1 1.9 22 2.6 14.8.9 28.7 6.8 55 23.4 18.6 11.8 24.8 15.7 39.5 25.3 15.9 10.4 29.7 18.9 30.8 18.9.3 0 1.3.6 2.1 1.3 1.5 1.2 13.3 6.8 24.1 11.5 5.9 2.6 32.7 12.3 36.5 13.3 1.7.4 8 2.2 14 3.9 12.3 3.6 13.9 4 17.5 4.5 1.4.2 6.1 1.1 10.5 1.9 18.8 3.5 39 5 67 5 16.6 0 46-.9 46-1.4 0-.1 1.4-.3 3-.4 4.5-.4 15.7-1.7 18.5-2.1 1.4-.2 4.5-.6 7-1 13-1.7 35-6.6 45.8-10.1 4.1-1.4 11.4-4 42.2-15.5 10.1-3.7 26.1-11 40-18.2 19.3-10 32.3-16.9 36.2-19.4 2.1-1.3 4-2.3 4.2-2.3.2 0 7.8-4.3 16.8-9.6 8.9-5.3 17.2-10.2 18.3-10.8 21.7-12.8 47-30.6 53.2-37.5 5.6-6.1 4.1-10.5-7.2-22.5-9.9-10.4-40-31.2-68.5-47.3-1.9-1.1-5.9-3.4-8.8-5.2-2.9-1.7-5.6-3.1-5.9-3.1-.3 0-2.8-1.3-5.4-3-2.7-1.6-4.9-2.7-4.9-2.4 0 .3-1.2-.3-2.7-1.4-2.5-1.6-28-14.6-29.3-14.8-.3 0-3.6-1.5-7.5-3.3-11.8-5.6-16.6-7.7-28-12.5-6-2.6-11.9-5.1-13-5.6-3.7-1.7-26-10.2-27.5-10.5-.8-.2-5.3-1.7-10-3.3-15.6-5.5-25.3-8.4-55-16.3-2.5-.7-5.2-1.3-6-1.4-.8-.2-2.8-.5-4.4-.8-14.8-3-23-4.3-32.1-5.2-5-.5-28.4-1.2-28.8-.9zm16.7 22.6c1.3 1.4 4.4 9.2 5.1 12.9.3 1.3.9 4.6 1.5 7.4 1.1 5.6 2 11.2 2.1 13.5.1.8.5 4.6 1 8.5.9 6.8 1.1 10.3 2.6 33 .9 14.8.9 76 0 91.5-1.1 18.3-1.5 23.9-2.2 30-1 9.7-1.7 14.7-4 27.9-1.8 10.7-6.7 20.3-9.5 18.6-2.1-1.3-7-13.5-5.9-14.7.1-.2-.2-1.2-.8-2.3-.6-1.1-1.4-4.5-1.7-7.6-.4-3.1-.9-6.7-1.1-8-.3-1.3-.7-4.7-1-7.4-.3-2.8-.7-7-1-9.5-3.3-28.2-3.9-106.2-1-134 .2-1.9.6-6.7.9-10.5.9-9.7 1.6-15.5 2.1-18.4.2-1.3.7-4.5 1.1-7 .9-6.7 3.3-16.1 5.2-20.1 2.3-5 4.2-6.1 6.6-3.8zM544.8 337c16.2 4 52.4 19.5 75.7 32.3 9 5 33.6 18.8 37 20.8 1.7 1 4.8 2.7 7 3.9 13.1 7.1 32.9 21.7 42.8 31.4 6.5 6.5 9.7 11.1 9.7 14.2 0 3.7-12.2 14.8-27.5 24.9-3.3 2.2-6.2 4.3-6.5 4.6-1.1 1.2-37 22.9-38 22.9-.5 0-1 .4-1 .9s-.8 1.1-1.7 1.4c-1 .3-4.9 2.4-8.8 4.7-3.8 2.2-8.4 4.7-10.2 5.5-1.7.8-3.5 1.9-3.8 2.5-.4.6-1 .8-1.5.5-.5-.3-1.1-.1-1.5.4-.6 1.1 0 .8-24 12.8-34.2 17.3-51 24.1-71 29.2-10.6 2.6-15.2 3.1-18.6 1.9-5.7-2-2.3-8.4 14.1-26.8 19.7-21.9 32.3-46.3 35.6-69 .3-1.9.9-5.1 1.3-7.1.9-3.8.6-30.5-.3-34.9-.2-1.4-.7-4.2-1-6.4-.4-2.1-.8-4.2-1.1-4.6-.2-.3-.7-2.2-1-4.1-.3-1.9-1.7-7-3.2-11.4-2.5-7.8-4.7-12.8-12-28.5-7.3-15.5-8.1-18.4-5.8-22.1 1-1.6 4-2.8 6-2.3.6.2 4.7 1.2 9.3 2.4zm-246.5.7c2.9.7 2 3.6-3.9 12.4-19.2 28.9-26.3 63.6-20.3 100.4 2.4 15 8.7 33.8 15.1 44.8 1.5 2.6 2.8 5 2.8 5.3 0 .8 8 12.5 13 18.9 2.6 3.3 5.5 7.6 6.6 9.5 1 1.9 2.3 3.8 2.7 4.1 1.5 1.1.3 4.1-2.3 6.1-2.6 1.9-2.6 1.9-11-1.6-19.5-7.9-88.2-41.8-112.5-55.5-7-4-16-9.5-16.5-10.1-3.3-3.9-30.9-18.2-43-22.3-11.5-3.8-14.2-4.4-25.8-5.1-8.5-.5-14.4-3-14.9-6.4-.3-2.4 4.1-8.2 6.3-8.2.7 0 1.4-.4 1.6-.8.5-1.2 11.7-5.9 19.8-8.2 18.5-5.3 22.2-6.5 33-10.7 15-5.7 20.2-8.1 39.9-18.1 13.7-6.9 31.1-17.1 33.1-19.2 1.5-1.5 23.6-16.2 28.5-18.9 2.2-1.2 4.7-2.5 5.5-3 7-4 22.2-10.4 30-12.6 4.5-1.3 9-1.6 12.3-.8z"/></svg>